# xmcd
#
# Track frame offsets: 
#        150
#        19582
#        38642
#        60212
#        81689
#        103260
#        121523
#        142168
#        166307
#        184873
#
# Disc length: 2707 seconds
#
# Revision: 0
# Processed by: cddbd v1.5.2PL0 Copyright (c) Steve Scherf et al.
# Submitted via: ExactAudioCopy v1.0b1
#
DISCID=7f0a910a
DTITLE=Emma Paki - Trinity
DYEAR=2010
DGENRE=Soul
TTITLE0=Century Sky (Acoustic)
TTITLE1=Stand Alone (Acoustic)
TTITLE2=Solid Love (Acoustic)
TTITLE3=Century Sky (Remixed)
TTITLE4=Stand Alone (Remixed)
TTITLE5=Solid Love (Remixed)
TTITLE6=Century Sky (Mixed)
TTITLE7=Stand Alone (Mixed)
TTITLE8=Solid Love (Mixed)
TTITLE9=Century Sky (Bonus)
EXTD=
EXTT0=
EXTT1=
EXTT2=
EXTT3=
EXTT4=
EXTT5=
EXTT6=
EXTT7=
EXTT8=
EXTT9=
PLAYORDER=
